<?xml version="1.0" standalone="no"?>
<!DOCTYPE svg PUBLIC "-//W3C//DTD SVG 20010904//EN"
 "http://www.w3.org/TR/2001/REC-SVG-20010904/DTD/svg10.dtd">
<svg version="1.0" xmlns="http://www.w3.org/2000/svg"
 width="794.000000pt" height="760.000000pt" viewBox="0 0 794.000000 760.000000"
 preserveAspectRatio="xMidYMid meet">
<metadata>
Created by potrace 1.16, written by Peter Selinger 2001-2019
</metadata>
<g transform="translate(0.000000,760.000000) scale(0.100000,-0.100000)"
fill="#000000" stroke="none">
<path d="M3795 7041 c-232 -37 -357 -75 -518 -158 -368 -188 -593 -507 -679
-960 -19 -102 -22 -150 -22 -353 1 -210 4 -251 28 -385 45 -251 93 -421 176
-631 92 -230 223 -470 343 -629 33 -44 94 -125 136 -180 100 -134 187 -223
303 -310 249 -188 426 -212 673 -91 548 270 1064 1155 1161 1994 23 198 15
485 -19 642 -125 576 -483 920 -1087 1045 -172 35 -337 41 -495 16z m-893
-1072 c152 -77 331 -215 437 -338 195 -227 324 -526 348 -806 5 -69 4 -74 -40
-167 -52 -107 -123 -193 -196 -236 -40 -24 -57 -27 -131 -27 -75 0 -92 4 -145
30 -130 65 -268 232 -354 429 -92 210 -136 489 -112 715 19 183 89 431 122
431 5 0 37 -14 71 -31z m2297 -133 c46 -143 61 -242 61 -400 0 -210 -35 -380
-116 -554 -124 -272 -344 -436 -510 -382 -95 31 -184 132 -240 270 -30 74 -29
117 8 275 70 306 231 554 482 745 115 87 255 163 273 148 7 -6 26 -51 42 -102z"/>
<path d="M3446 3107 c-24 -17 -35 -116 -36 -322 l-1 -160 -63 -68 -64 -69 -39
59 c-22 32 -46 78 -54 103 -12 40 -18 45 -46 48 -23 2 -34 -2 -42 -17 -15 -27
-3 -54 64 -150 30 -43 55 -88 55 -100 0 -12 -13 -47 -29 -79 -96 -192 -139
-387 -122 -564 13 -129 39 -208 106 -323 102 -175 173 -327 194 -418 12 -49
19 -92 16 -96 -2 -4 -5 -51 -7 -104 -2 -76 1 -100 14 -114 29 -33 48 -82 48
-123 0 -25 4 -39 10 -35 6 4 10 -5 10 -19 0 -26 19 -38 21 -13 6 109 29 184
71 244 31 42 31 44 25 130 -5 76 -4 91 12 112 l19 25 73 -22 c142 -42 317 -51
459 -22 107 21 110 21 110 0 0 -11 12 -26 29 -34 34 -18 41 -34 41 -88 0 -32
7 -47 35 -75 19 -19 42 -33 52 -31 10 2 30 28 46 60 l28 58 -12 94 c-15 112
-14 113 82 196 35 30 87 80 114 112 28 31 53 57 56 58 4 0 9 -10 12 -21 3 -13
11 -19 19 -17 11 4 14 -67 16 -376 2 -209 6 -383 8 -385 10 -10 12 20 18 279
17 652 32 833 77 893 13 18 22 47 24 82 2 29 9 69 16 89 12 32 11 38 -8 64
-12 16 -49 85 -83 153 -35 68 -82 159 -106 201 -24 43 -44 86 -44 96 0 10 18
47 40 81 56 87 80 136 80 166 0 52 -73 41 -85 -14 -3 -16 -24 -58 -46 -91
l-40 -62 -59 52 c-33 29 -63 57 -68 64 -4 6 -8 79 -9 161 -3 223 -8 302 -23
320 -32 38 -97 0 -87 -52 3 -15 12 -64 21 -108 16 -85 21 -240 8 -249 -4 -2
-30 9 -57 27 -142 88 -444 153 -536 114 -20 -8 -56 -18 -80 -22 -44 -7 -114
-40 -198 -91 l-44 -27 6 119 c3 79 12 141 26 184 24 75 26 101 9 118 -16 16
-60 15 -82 -1z m649 -412 c81 -21 200 -78 251 -120 48 -40 48 -42 3 -143 -46
-104 -175 -212 -253 -212 -26 0 -30 14 -39 140 -1 27 -7 36 -23 38 -33 5 -54
-24 -54 -74 0 -54 -14 -84 -40 -84 -15 0 -20 10 -25 58 -9 80 -13 90 -37 98
-31 9 -45 -16 -53 -97 -4 -38 -10 -71 -14 -73 -4 -3 -27 0 -50 6 -29 7 -62 28
-100 64 -46 43 -65 71 -105 158 -26 58 -46 112 -43 120 9 24 84 73 146 97 128
49 306 58 436 24z m-533 -601 c18 -9 62 -27 98 -40 l65 -23 -139 0 c-132 -1
-140 0 -185 25 -38 22 -55 26 -84 20 -75 -14 -103 -107 -52 -176 14 -19 25
-45 25 -58 0 -29 24 -25 28 6 2 14 13 23 33 27 17 4 46 21 65 37 39 35 98 49
162 41 23 -3 42 -7 42 -9 0 -2 -15 -27 -34 -56 -83 -131 -113 -223 -123 -383
-5 -85 -10 -108 -35 -152 -17 -29 -34 -53 -38 -53 -18 0 -80 85 -117 158 -34
69 -38 85 -39 157 0 65 -5 92 -28 145 -28 62 -28 69 -22 170 9 134 16 164 64
280 21 52 42 103 45 113 5 14 29 -5 121 -97 64 -63 130 -123 148 -132z m965
-159 c77 -39 90 -72 73 -195 -8 -52 -15 -166 -17 -253 l-4 -158 -41 -40 c-23
-22 -49 -44 -59 -49 -19 -11 -21 -2 -39 210 -16 191 -24 230 -69 326 -30 64
-48 88 -72 102 -17 9 -43 27 -58 39 l-26 21 40 7 c22 3 47 8 55 10 8 1 49 3
91 4 62 1 84 -3 126 -24z m-709 -190 c-2 -84 1 -136 7 -137 6 -2 11 12 13 30
2 18 9 32 16 32 9 0 16 20 21 55 11 93 25 74 25 -35 0 -65 4 -99 10 -95 6 3
10 25 10 48 0 31 3 38 10 27 8 -12 13 -13 30 -2 19 11 20 10 20 -22 0 -19 4
-37 9 -40 5 -3 12 40 16 95 7 108 12 122 16 45 2 -29 8 -50 16 -53 11 -4 12
-39 7 -183 -6 -159 -2 -241 12 -227 3 2 7 78 9 168 4 212 17 365 32 380 20 20
74 12 116 -18 52 -36 103 -130 123 -224 21 -101 17 -421 -6 -442 -21 -21 -245
-75 -338 -83 -88 -7 -154 4 -287 47 -94 32 -125 51 -125 78 0 9 -6 25 -14 36
-20 29 -30 232 -17 326 21 155 75 242 181 299 93 50 92 51 88 -105z"/>
<path d="M12 1223 l-2 -1223 1515 0 1515 0 0 40 0 40 -40 0 c-33 0 -40 3 -40
20 0 13 -7 20 -20 20 -13 0 -20 -7 -20 -20 0 -13 -7 -20 -20 -20 -17 0 -20 7
-20 40 l0 40 -40 0 c-33 0 -40 3 -40 20 0 17 -7 20 -40 20 -33 0 -40 3 -40 20
0 17 -7 20 -40 20 l-40 0 0 40 0 40 -60 0 -60 0 0 40 0 40 -60 0 -60 0 0 40 0
40 -60 0 -60 0 0 40 0 40 -40 0 c-33 0 -40 3 -40 20 0 18 -7 20 -60 20 l-60 0
0 40 0 40 -40 0 c-33 0 -40 3 -40 20 0 13 -7 20 -20 20 -13 0 -20 7 -20 20 0
13 -7 20 -20 20 -13 0 -20 -7 -20 -20 0 -13 -7 -20 -20 -20 -13 0 -20 7 -20
20 0 13 -7 20 -20 20 -13 0 -20 7 -20 20 0 13 -7 20 -20 20 -13 0 -20 7 -20
20 0 13 -7 20 -20 20 -13 0 -20 7 -20 20 0 17 -7 20 -40 20 -33 0 -40 3 -40
20 0 17 -7 20 -40 20 l-40 0 0 40 0 40 -40 0 c-33 0 -40 3 -40 20 0 17 -7 20
-40 20 -33 0 -40 3 -40 20 0 17 -7 20 -40 20 l-40 0 0 40 0 40 -80 0 -80 0 0
40 0 40 -40 0 c-33 0 -40 3 -40 20 0 17 -7 20 -40 20 l-40 0 0 40 0 40 -80 0
-80 0 0 40 0 40 -40 0 -40 0 0 40 0 40 -60 0 c-53 0 -60 2 -60 20 0 13 -7 20
-20 20 -13 0 -20 7 -20 20 0 13 -7 20 -20 20 -13 0 -20 7 -20 20 0 18 -7 20
-80 20 -73 0 -80 2 -80 20 0 13 7 20 20 20 13 0 20 7 20 20 0 18 -7 20 -60 20
-53 0 -60 2 -60 20 0 13 -7 20 -20 20 -13 0 -20 7 -20 20 0 13 -7 20 -20 20
-13 0 -20 7 -20 20 0 17 -7 20 -40 20 -33 0 -40 3 -40 20 0 13 -7 20 -20 20
-13 0 -20 -7 -20 -20 0 -13 -7 -20 -20 -20 -17 0 -20 7 -20 40 l0 40 -45 0
c-39 0 -45 -3 -47 -22 -2 -13 -5 105 -8 262 -3 157 -6 -265 -8 -937z"/>
</g>
</svg>
